<svg width="191" height="219" viewBox="0 0 191 219" fill="none" xmlns="http://www.w3.org/2000/svg">
<path d="M96 193L105.408 193.049L114.712 193.197L123.812 193.44L132.606 193.778L141 194.206L148.901 194.719L156.222 195.312L162.883 195.978L168.812 196.71L173.942 197.5L178.219 198.339L181.595 199.219L184.033 200.129L185.507 201.059L186 202L185.507 202.941L184.033 203.871L181.595 204.781L178.219 205.661L173.942 206.5L168.812 207.29L162.883 208.022L156.222 208.688L148.901 209.281L141 209.794L132.606 210.222L123.812 210.56L114.712 210.803L105.408 210.951L96 211L86.5924 210.951L77.2879 210.803L68.1885 210.56L59.3937 210.222L51 209.794L43.0993 209.281L35.7782 208.688L29.117 208.022L23.1885 207.29L18.0577 206.5L13.7809 205.661L10.4049 204.781L7.96671 203.871L6.49303 202.941L6 202L6.49303 201.059L7.96671 200.129L10.4049 199.219L13.7809 198.339L18.0577 197.5L23.1885 196.71L29.117 195.978L35.7782 195.312L43.0993 194.719L51 194.206L59.3937 193.778L68.1885 193.44L77.2879 193.197L86.5924 193.049L96 193Z" fill="#D9D9D9"/>
<path d="M96 195L105.408 195.049L114.712 195.197L123.812 195.44L132.606 195.778L141 196.206L148.901 196.719L156.222 197.312L162.883 197.978L168.812 198.71L173.942 199.5L178.219 200.339L181.595 201.219L184.033 202.129L185.507 203.059L186 204L185.507 204.941L184.033 205.871L181.595 206.781L178.219 207.661L173.942 208.5L168.812 209.29L162.883 210.022L156.222 210.688L148.901 211.281L141 211.794L132.606 212.222L123.812 212.56L114.712 212.803L105.408 212.951L96 213L86.5924 212.951L77.2879 212.803L68.1885 212.56L59.3937 212.222L51 211.794L43.0993 211.281L35.7782 210.688L29.117 210.022L23.1885 209.29L18.0577 208.5L13.7809 207.661L10.4049 206.781L7.96671 205.871L6.49303 204.941L6 204L6.49303 203.059L7.96671 202.129L10.4049 201.219L13.7809 200.339L18.0577 199.5L23.1885 198.71L29.117 197.978L35.7782 197.312L43.0993 196.719L51 196.206L59.3937 195.778L68.1885 195.44L77.2879 195.197L86.5924 195.049L96 195Z" fill="#D9D9D9"/>
<g clip-path="url(#paint0_diamond_157_5751_clip_path)" data-figma-skip-parse="true"><g transform="matrix(-0.104 0.2465 -0.230885 -0.0974119 123.5 -39)"><rect x="0" y="0" width="1072.83" height="653.619" fill="url(#paint0_diamond_157_5751)" opacity="0.2" shape-rendering="crispEdges"/><rect x="0" y="0" width="1072.83" height="653.619" transform="scale(1 -1)" fill="url(#paint0_diamond_157_5751)" opacity="0.2" shape-rendering="crispEdges"/><rect x="0" y="0" width="1072.83" height="653.619" transform="scale(-1 1)" fill="url(#paint0_diamond_157_5751)" opacity="0.2" shape-rendering="crispEdges"/><rect x="0" y="0" width="1072.83" height="653.619" transform="scale(-1)" fill="url(#paint0_diamond_157_5751)" opacity="0.2" shape-rendering="crispEdges"/></g></g><path d="M191 219L138 0H56L0 219H191Z" data-figma-gradient-fill="{&#34;type&#34;:&#34;GRADIENT_DIAMOND&#34;,&#34;stops&#34;:[{&#34;color&#34;:{&#34;r&#34;:1.0,&#34;g&#34;:0.84313726425170898,&#34;b&#34;:0.0,&#34;a&#34;:1.0},&#34;position&#34;:0.0},{&#34;color&#34;:{&#34;r&#34;:1.0,&#34;g&#34;:0.84313726425170898,&#34;b&#34;:0.0,&#34;a&#34;:0.20000000298023224},&#34;position&#34;:1.0}],&#34;stopsVar&#34;:[{&#34;color&#34;:{&#34;r&#34;:1.0,&#34;g&#34;:0.84313726425170898,&#34;b&#34;:0.0,&#34;a&#34;:1.0},&#34;position&#34;:0.0},{&#34;color&#34;:{&#34;r&#34;:1.0,&#34;g&#34;:0.84313726425170898,&#34;b&#34;:0.0,&#34;a&#34;:0.20000000298023224},&#34;position&#34;:1.0}],&#34;transform&#34;:{&#34;m00&#34;:-208.00001525878906,&#34;m01&#34;:-461.76998901367188,&#34;m02&#34;:458.3850097656250,&#34;m10&#34;:493.00003051757812,&#34;m11&#34;:-194.82385253906250,&#34;m12&#34;:-188.08808898925781},&#34;opacity&#34;:0.20000000298023224,&#34;blendMode&#34;:&#34;NORMAL&#34;,&#34;visible&#34;:true}"/>
<defs>
<clipPath id="paint0_diamond_157_5751_clip_path"><path d="M191 219L138 0H56L0 219H191Z"/></clipPath><linearGradient id="paint0_diamond_157_5751" x1="0" y1="0" x2="500" y2="500" gradientUnits="userSpaceOnUse">
<stop stop-color="#FFD700"/>
<stop offset="1" stop-color="#FFD700" stop-opacity="0.2"/>
</linearGradient>
</defs>
</svg>
