<svg width="20" height="20" viewBox="0 0 20 20" fill="none" xmlns="http://www.w3.org/2000/svg">
<path d="M0.800781 19.2383C0.574219 19.0117 0.421875 18.7461 0.34375 18.4414C0.273438 18.1289 0.277344 17.8242 0.355469 17.5273C0.433594 17.2227 0.578125 16.9648 0.789062 16.7539L7.48047 10.0508L0.789062 3.35938C0.578125 3.14844 0.433594 2.89062 0.355469 2.58594C0.285156 2.28125 0.285156 1.97656 0.355469 1.67188C0.433594 1.36719 0.582031 1.10156 0.800781 0.875C1.02734 0.640625 1.29297 0.488281 1.59766 0.417969C1.91016 0.347656 2.21875 0.347656 2.52344 0.417969C2.82812 0.488281 3.08984 0.632812 3.30859 0.851562L10 7.53125L16.6797 0.851562C16.8984 0.632812 17.1602 0.488281 17.4648 0.417969C17.7695 0.339844 18.0703 0.339844 18.3672 0.417969C18.6719 0.496094 18.9414 0.648438 19.1758 0.875C19.4023 1.10156 19.5547 1.36719 19.6328 1.67188C19.7109 1.97656 19.7109 2.28125 19.6328 2.58594C19.5625 2.88281 19.418 3.14453 19.1992 3.37109L12.5195 10.0508L19.1992 16.7422C19.418 16.9609 19.5625 17.2227 19.6328 17.5273C19.7031 17.832 19.6992 18.1367 19.6211 18.4414C19.5508 18.7461 19.4023 19.0117 19.1758 19.2383C18.9492 19.4648 18.6836 19.6133 18.3789 19.6836C18.0742 19.7617 17.7695 19.7656 17.4648 19.6953C17.1602 19.625 16.8984 19.4766 16.6797 19.25L10 12.5703L3.30859 19.2617C3.08984 19.4727 2.82812 19.6133 2.52344 19.6836C2.22656 19.7617 1.92188 19.7617 1.60938 19.6836C1.30469 19.6133 1.03516 19.4648 0.800781 19.2383Z" fill="#F0F0F0"/>
</svg>
